<?xml version="1.0" encoding="utf-8"?>
<!-- Generator: Adobe Illustrator 19.2.1, SVG Export Plug-In . SVG Version: 6.00 Build 0)  -->
<svg version="1.1" id="Layer_1" xmlns="http://www.w3.org/2000/svg" xmlns:xlink="http://www.w3.org/1999/xlink" x="0px" y="0px"
	 viewBox="0 0 500 300" style="enable-background:new 0 0 500 300;" xml:space="preserve">
<style type="text/css">
	.st0{fill:none;stroke:#FF7F00;stroke-width:2;stroke-linecap:round;stroke-linejoin:round;stroke-miterlimit:10;}
	.st1{fill:none;stroke:#FFCA00;stroke-width:2;stroke-linecap:round;stroke-linejoin:round;stroke-miterlimit:10;}
	.st2{fill:#FFFFFF;}
	.st3{fill:#398FF2;}
	.st4{fill:#FFCA00;}
	.st5{fill:#FF7F00;}
	.st6{fill:#FF4747;}
	.st7{fill:#01B463;}
	.st8{font-family:'OpenSans-Bold';}
	.st9{font-size:17.0234px;}
	.st10{fill:#5F646E;}
	.st11{font-size:14px;}
</style>
<polyline class="st0" points="119.5,44.9 100.8,33.4 73,33.4 "/>
<polyline class="st1" points="98,6.9 121,6.9 147.8,39.7 "/>
<circle class="st2" cx="157.5" cy="167.8" r="132"/>
<g>
	<g>
		<path class="st3" d="M157.5,167.8V38.3c71.5,0,129.5,58,129.5,129.5c0,46.3-24.7,89-64.7,112.2L157.5,167.8L157.5,167.8"/>
	</g>
	<g>
		<path class="st4" d="M157.5,167.8L138.7,39.7c6.2-0.9,12.5-1.4,18.8-1.4V167.8L157.5,167.8"/>
	</g>
	<g>
		<path class="st5" d="M157.5,167.8L100.7,51.4c12-5.9,24.8-9.8,38-11.8L157.5,167.8L157.5,167.8"/>
	</g>
	<g>
		<path class="st6" d="M157.5,167.8L44.1,105.3C56.9,82,76.7,63.1,100.7,51.4L157.5,167.8L157.5,167.8"/>
	</g>
	<g>
		<path class="st7" d="M157.5,167.8L222.4,280c-61.9,35.8-141.2,14.6-177-47.3c-22.7-39.3-23.2-87.6-1.3-127.3L157.5,167.8
			L157.5,167.8"/>
	</g>
	<circle class="st2" cx="157.5" cy="167.8" r="57.5"/>
</g>
<text transform="matrix(1 0 0 1 219.5229 157.584)" class="st2 st8 st9">41.66%</text>
<text transform="matrix(1 0 0 1 58.5229 231.2506)" class="st2 st8 st9">41.35%</text>
<text transform="matrix(1 0 0 1 67.5229 106.6224)" class="st2 st8 st9">9.76%</text>
<g>
	<text transform="matrix(1 0 0 1 27.9998 37.5485)" class="st10 st8 st11">4.91%</text>
</g>
<g>
	<text transform="matrix(1 0 0 1 51.6508 11.154)" class="st10 st8 st11">2.32%</text>
</g>
<rect x="354" y="95.9" class="st3" width="10" height="10"/>
<text transform="matrix(1 0 0 1 377.2617 106.2488)" class="st10 st8 st11">CHROME</text>
<rect x="354" y="170.2" class="st6" width="10" height="10"/>
<text transform="matrix(1 0 0 1 377.2617 180.5657)" class="st10 st8 st11">FIREFOX</text>
<rect x="354" y="124.7" class="st7" width="10" height="10"/>
<text transform="matrix(1 0 0 1 377.2617 134.9963)"><tspan x="0" y="0" class="st10 st8 st11">INTERNET</tspan><tspan x="0" y="16.8" class="st10 st8 st11">EXPLORER</tspan></text>
<rect x="354" y="199" class="st5" width="10" height="10"/>
<text transform="matrix(1 0 0 1 377.2617 209.3132)" class="st10 st8 st11">SAFARI</text>
<rect x="354" y="227.7" class="st4" width="10" height="10"/>
<text transform="matrix(1 0 0 1 377.2617 238.0608)" class="st10 st8 st11">OTHER</text>
</svg>
